<?xml version="1.0" encoding="utf-8"?>
<!-- Generator: Adobe Illustrator 16.0.0, SVG Export Plug-In . SVG Version: 6.00 Build 0)  -->
<!DOCTYPE svg PUBLIC "-//W3C//DTD SVG 1.1//EN" "http://www.w3.org/Graphics/SVG/1.1/DTD/svg11.dtd">
<svg version="1.1" id="Layer_1" xmlns="http://www.w3.org/2000/svg" xmlns:xlink="http://www.w3.org/1999/xlink" x="0px" y="0px"
	 width="263.62px" height="150.24px" viewBox="0 0 263.62 150.24" enable-background="new 0 0 263.62 150.24" xml:space="preserve">
<g>
	<g>
		<path fill="#FFF" d="M125.133,7.612c-22.69,38.823-45.38,77.646-68.07,116.469c-0.015,0.025-0.03,0.051-0.044,0.076
			c-1.466,2.509,4.381,1.953,5.431,0.25c5.555-9.014,12.075-17.547,19.003-25.536c10.154-11.709,24.968-27.663,41.715-28.04
			c17.694-0.397,22.012,19.103,23.586,32.971c0.881,7.754,1.074,15.565,1.833,23.33c0.481,4.919,0.986,11.047,4.463,14.907
			c2.021,2.244,4.997,2.387,7.796,2.186c6.591-0.474,13.101-3.006,19.099-5.613c8.94-3.888,17.61-8.915,25.571-14.546
			c3.214-2.272-1.715-3.31-3.654-1.938c-5.038,3.563-10.373,6.735-15.786,9.689c-4.652,2.54-9.495,4.743-14.47,6.572
			c-3.052,1.122-9.044,3.653-12.219,2.075c-4.165-2.07-4.483-10.204-4.918-14.065c-0.866-7.7-1.038-15.465-1.814-23.175
			c-1.386-13.746-4.807-30.218-19.751-34.866c-15.185-4.723-30.96,5.612-41.909,15.01c-13.283,11.4-24.797,25.894-33.976,40.788
			c1.81,0.083,3.621,0.167,5.431,0.25c22.69-38.823,45.38-77.646,68.07-116.47c0.015-0.025,0.03-0.05,0.044-0.076
			C132.016,5.376,126.163,5.85,125.133,7.612L125.133,7.612z"/>
	</g>
</g>
</svg>
